<svg width="594" height="115" viewBox="0 0 594 115" fill="none" xmlns="http://www.w3.org/2000/svg">
<g filter="url(#filter0_d)">
<path d="M188.68 98.3428C188.699 97.3177 188.523 96.3001 188.165 95.3619C187.807 94.4237 187.274 93.5876 186.606 92.9126C185.204 91.4624 183.377 90.6827 181.495 90.7319C180.718 90.6612 179.937 90.7725 179.199 91.059C178.461 91.3456 177.78 91.8016 177.198 92.3995C169.544 80.9974 165.717 70.6643 165.717 61.4001C166.66 61.8847 167.685 62.1185 168.717 62.0842C169.355 62.114 169.992 61.9885 170.585 61.716C171.178 61.4434 171.715 61.0299 172.161 60.5022C173.117 59.1116 173.58 57.3544 173.458 55.585C173.497 54.5854 173.345 53.5881 173.012 52.6642C172.679 51.7403 172.174 50.9127 171.532 50.2403C169.957 48.8394 167.998 48.141 166.013 48.2735C163.659 48.0942 161.337 48.9805 159.539 50.7446C157.742 52.5086 156.61 55.0117 156.384 57.7229L148.05 49.1714L145.05 57.7229C143.355 54.9093 141.075 52.6308 138.421 51.0955C135.741 49.392 132.738 48.4813 129.68 48.4445C127.67 48.287 125.68 48.9869 124.087 50.4114C123.463 51.0952 122.974 51.9269 122.654 52.8495C122.335 53.7721 122.192 54.7637 122.236 55.7561C122.166 56.7306 122.33 57.7083 122.709 58.5828C123.088 59.4573 123.667 60.1952 124.384 60.716C125.765 61.6949 127.355 62.2129 128.976 62.2125C129.824 62.1904 130.658 61.957 131.421 61.5284C132.297 61.064 133.042 60.3228 133.569 59.3905C136.278 61.7111 138.287 64.9572 139.31 68.6689H113.902C114.395 66.9149 114.803 65.1306 115.124 63.3242C115.321 61.9102 115.42 60.4805 115.421 59.0484C115.421 51.9934 112.717 48.4445 107.384 48.4445C106.584 48.4225 105.789 48.5851 105.045 48.9229C104.301 49.2606 103.623 49.7667 103.05 50.4114C102.496 51.0403 102.059 51.7932 101.766 52.6241C101.473 53.4549 101.331 54.3461 101.347 55.243C101.347 59.5188 103.717 61.9987 108.495 62.2125C108.964 69.3958 105.915 79.8287 99.3466 93.5112C98.0649 92.5003 96.5641 91.9227 95.0133 91.8436C93.2833 91.787 91.5873 92.4046 90.1985 93.5967C89.5363 94.2597 89.0174 95.0919 88.6831 96.0272C88.3487 96.9626 88.2081 97.9751 88.2725 98.9842C88.2401 100.02 88.3872 101.053 88.7052 102.022C89.0232 102.991 89.5057 103.877 90.1244 104.628C90.8423 105.382 91.6849 105.96 92.6016 106.327C93.5182 106.695 94.4898 106.844 95.4577 106.766C98.2539 106.62 100.899 105.261 102.865 102.961C103.75 104.161 104.852 105.124 106.093 105.781C107.334 106.438 108.685 106.775 110.05 106.766C114.939 106.766 117.458 104.329 117.458 99.4973C117.504 98.5065 117.377 97.5152 117.084 96.5823C116.791 95.6494 116.339 94.794 115.754 94.067C115.134 93.3614 114.39 92.817 113.572 92.4704C112.754 92.1238 111.882 91.983 111.013 92.0574H110.161C109.666 92.0681 109.176 92.1841 108.717 92.3995C109.267 85.2824 110.715 78.2963 113.013 71.662H140.31C141.569 75.9377 142.495 79.4866 143.198 82.779C143.796 85.6707 144.168 88.6186 144.31 91.5871L143.013 91.3305C142.007 91.1542 140.979 91.2475 140.01 91.6035C139.04 91.9594 138.154 92.5682 137.421 93.3829C136.258 94.8822 135.647 96.8453 135.717 98.8559C135.684 99.9067 135.845 100.954 136.19 101.927C136.535 102.9 137.055 103.777 137.717 104.5C139.318 106.046 141.376 106.813 143.458 106.638C145.029 106.579 146.571 106.127 147.976 105.312C149.673 104.372 151.101 102.888 152.087 101.037C153.054 102.725 154.347 104.132 155.863 105.148C157.379 106.164 159.079 106.762 160.828 106.894C162.539 106.856 164.214 106.318 165.697 105.331C167.18 104.344 168.423 102.941 169.31 101.25C170.62 103.103 172.286 104.578 174.176 105.558C176.067 106.537 178.128 106.995 180.198 106.894C185.865 106.894 188.68 104.072 188.68 98.3428ZM112.31 99.198C112.31 101.165 111.198 102.191 109.013 102.191C106.828 102.191 104.606 99.7538 103.865 94.8794C101.05 99.4118 98.3837 101.678 95.7911 101.678C93.1985 101.678 92.3466 100.609 92.3466 98.5139C92.3466 96.4187 93.3096 95.7346 95.2355 95.7346C95.7721 95.7819 96.2919 95.9722 96.754 96.2904C97.4483 96.7915 98.0115 97.5009 98.3837 98.3428C101.716 95.3263 104.129 91.1627 105.273 86.4562H105.717C105.601 87.3775 105.527 88.3052 105.495 89.2354V92.0574C105.422 94.3497 105.979 96.6099 107.087 98.5139C107.314 97.9011 107.699 97.3838 108.189 97.032C108.68 96.6801 109.252 96.5108 109.828 96.547C111.532 96.547 112.384 97.4021 112.384 99.198H112.31ZM112.68 60.4167C112.741 62.8494 112.31 65.2651 111.421 67.4717H111.124C111.124 66.4455 111.31 65.5049 111.347 64.5642C111.384 63.6235 111.347 62.7256 111.347 61.8277C111.443 59.9955 110.985 58.1816 110.05 56.6968C109.71 57.0844 109.304 57.3869 108.858 57.5855C108.412 57.7842 107.935 57.8746 107.458 57.8512C105.569 57.8512 104.606 56.9105 104.606 55.0292C104.606 53.1479 105.606 52.2072 107.606 52.2072C108.418 52.1525 109.226 52.3851 109.921 52.8741C110.615 53.363 111.165 54.085 111.495 54.9437C112.245 56.6691 112.638 58.5718 112.643 60.5022L112.68 60.4167ZM148.458 91.4588C148.458 98.129 146.828 101.421 143.569 101.421C142.718 101.503 141.873 101.213 141.198 100.609C140.952 100.358 140.755 100.048 140.62 99.7018C140.486 99.3551 140.418 98.9791 140.421 98.5994C140.421 96.8463 141.31 95.9484 143.124 95.9484C143.923 95.953 144.714 96.1269 145.458 96.4615C146.227 94.8367 146.623 93.0112 146.606 91.1595C146.582 88.6754 146.359 86.1991 145.939 83.7624C145.432 80.7407 144.688 77.7782 143.717 74.9116L142.124 70.0372C141.568 68.1892 140.848 66.4125 139.976 64.7352C139.037 62.9632 137.918 61.3268 136.643 59.8608C135.3 58.2765 133.719 56.9871 131.976 56.0554C131.694 56.6987 131.266 57.2414 130.738 57.6255C130.209 58.0096 129.601 58.2206 128.976 58.236C126.865 58.236 125.791 57.2954 125.791 55.3713C125.791 53.4472 126.902 52.592 129.087 52.592C134.198 52.592 138.84 57.6659 143.013 67.8138C146.319 75.1344 148.178 83.2096 148.458 91.4588ZM155.865 64.4787C155.222 65.2869 154.444 65.9379 153.579 66.3932C152.714 66.8486 151.779 67.099 150.828 67.1296C149.814 67.1026 148.806 66.9303 147.828 66.6166C147.828 65.4193 148.236 63.9228 148.532 62.3408C148.828 60.7587 149.161 58.4498 149.532 56.0126C150.198 57.0388 151.05 58.236 152.124 59.6898L155.828 64.6497L155.865 64.4787ZM156.532 69.2675C156.375 70.4288 155.83 71.4727 155.013 72.1751C154.267 72.8648 153.34 73.2417 152.384 73.244C151.853 73.2245 151.333 73.0635 150.865 72.7737C150.418 72.5163 150.045 72.1154 149.791 71.6192C150.349 71.7896 150.936 71.7896 151.495 71.6192C152.139 71.5283 152.772 71.3562 153.384 71.1061L154.939 70.3365C155.541 70.0609 156.085 69.6379 156.532 69.0965V69.2675ZM156.976 73.073C156.947 73.5642 156.834 74.0439 156.643 74.4843C156.453 74.9247 156.188 75.317 155.865 75.6384C155.261 76.2778 154.462 76.6158 153.643 76.5791C153.182 76.5777 152.727 76.461 152.31 76.237C152.088 76.1334 151.888 75.9771 151.722 75.7782C151.556 75.5793 151.428 75.3423 151.347 75.0826C152.39 75.322 153.472 75.2031 154.458 74.7405C155.356 74.3112 156.202 73.7508 156.976 73.073ZM157.532 76.9212C157.518 77.3332 157.432 77.7378 157.28 78.1109C157.128 78.484 156.913 78.818 156.647 79.0932C156.381 79.3684 156.07 79.5791 155.732 79.7127C155.394 79.8464 155.036 79.9004 154.68 79.8715C154.277 79.8584 153.882 79.7353 153.528 79.5124C153.174 79.2894 152.871 78.9729 152.643 78.5887C153.444 78.8334 154.286 78.8334 155.087 78.5887C155.963 78.2358 156.787 77.7312 157.532 77.0922V76.9212ZM157.976 80.3845C157.98 80.7479 157.916 81.108 157.788 81.4401C157.66 81.7722 157.472 82.0685 157.236 82.3087C156.813 82.7653 156.259 83.0243 155.68 83.0355C155.291 83.033 154.909 82.9083 154.576 82.6748C154.244 82.4413 153.972 82.1079 153.791 81.71C154.493 81.9429 155.237 81.9429 155.939 81.71C156.715 81.5571 157.429 81.1228 157.976 80.4701V80.3845ZM158.384 83.8052C158.446 84.1073 158.434 84.4235 158.349 84.7181C158.264 85.0128 158.109 85.2741 157.902 85.4727C157.527 85.8703 157.041 86.098 156.532 86.1141C156.216 86.1168 155.905 86.0281 155.627 85.8564C155.349 85.6846 155.112 85.4351 154.939 85.1307C155.489 85.2645 156.056 85.2645 156.606 85.1307C157.28 84.9455 157.896 84.5455 158.384 83.9762V83.8052ZM160.421 101.379C159.412 101.535 158.387 101.327 157.485 100.784C156.583 100.24 155.849 99.3874 155.384 98.3428L155.68 98.0008C156.24 98.4203 156.872 98.6972 157.532 98.8132C158.432 99.0393 159.351 99.154 160.273 99.1552C161.893 99.1517 163.495 98.7585 164.976 98.0008V98.3428C164.388 99.1724 163.648 99.8407 162.809 100.299C161.97 100.758 161.053 100.995 160.124 100.994L160.421 101.379ZM158.68 86.8837C158.731 87.3231 158.643 87.7691 158.432 88.1395C158.221 88.5099 157.901 88.7798 157.532 88.8996C157.162 89.0193 156.767 88.9807 156.42 88.791C156.073 88.6013 155.797 88.2732 155.643 87.8672C155.88 87.9966 156.14 88.0638 156.402 88.0638C156.665 88.0638 156.924 87.9966 157.161 87.8672C157.728 87.6833 158.249 87.3462 158.68 86.8837ZM184.236 98.3428C184.244 98.7424 184.18 99.1397 184.046 99.5082C183.912 99.8768 183.711 100.208 183.458 100.481C182.682 101.111 181.736 101.4 180.791 101.293C178.013 101.293 174.754 98.2145 171.013 92.0147C165.005 83.202 161.546 72.4334 161.124 61.2291C161.124 55.5423 162.902 52.6775 166.421 52.6775C168.236 52.6775 169.161 53.4899 169.161 55.1575C169.161 56.825 168.161 58.1505 166.161 58.1505C165.347 58.147 164.545 57.9121 163.828 57.4664C163.495 58.2087 163.305 59.0257 163.273 59.8608V61.6994C163.536 68.5459 165.158 75.2311 168.013 81.2397C170.583 87.4305 174.081 93.0472 178.347 97.8297C178.606 97.0938 179.038 96.4559 179.594 95.9876C180.15 95.5194 180.808 95.2393 181.495 95.1787C181.871 95.1312 182.251 95.1793 182.61 95.3197C182.968 95.46 183.295 95.6892 183.569 95.9911C184.009 96.5355 184.248 97.2563 184.236 98.0008" fill="#CE8D27"/>
<path d="M147.902 3.80542H114.569V6.9695H123.309L113.865 49.3852L115.421 51.6941L123.235 17.1031L132.124 46.4349L135.421 47.2901L124.532 12.2715L125.532 6.9695H145.902L158.976 48.7438L161.272 47.4183L147.902 3.80542ZM148.458 37.1137C148.517 35.6147 148.195 34.1285 147.532 32.8379C147.22 32.3329 146.8 31.9296 146.313 31.6673C145.827 31.4051 145.289 31.2928 144.754 31.3414C143.124 31.3414 142.309 32.4104 142.309 34.4627C142.259 34.9026 142.259 35.3484 142.309 35.7882H142.902C142.902 33.6931 143.309 32.6669 144.458 32.6669C144.83 32.6579 145.197 32.7692 145.518 32.9883C145.839 33.2074 146.1 33.5256 146.272 33.9069C146.722 34.8938 146.939 35.9996 146.902 37.1137C146.942 37.6215 146.879 38.1329 146.718 38.6078C146.557 39.0827 146.303 39.508 145.976 39.8502C145.366 40.4779 144.571 40.8141 143.754 40.7909C143.25 40.796 142.752 40.663 142.302 40.4028C141.851 40.1427 141.46 39.7628 141.161 39.2944C140.432 38.0339 140.08 36.5318 140.161 35.0186C140.129 34.4985 140.219 33.9779 140.421 33.5115C140.623 33.0451 140.93 32.65 141.309 32.3676C141.112 31.6778 141.012 30.9561 141.013 30.2297C141.013 28.9042 141.939 27.365 143.754 25.5691C142.952 23.41 142.464 21.113 142.309 18.7706C142.271 17.4059 141.766 16.1141 140.906 15.177C140.046 14.2399 138.899 13.7334 137.717 13.768C136.621 13.7547 135.557 14.1945 134.717 15.008C134.263 15.5037 133.911 16.1104 133.686 16.7837C133.462 17.457 133.371 18.1798 133.421 18.8989C133.32 20.3212 133.676 21.7364 134.421 22.8754C134.737 23.3099 135.134 23.6553 135.584 23.885C136.033 24.1148 136.522 24.2228 137.013 24.2009C137.802 24.2269 138.57 23.9059 139.161 23.303C139.459 22.9391 139.688 22.5082 139.835 22.0374C139.981 21.5665 140.042 21.0657 140.013 20.5665C139.983 19.9972 139.883 19.4358 139.717 18.8989H139.013V19.583C139.013 21.4216 138.346 22.3623 137.013 22.3623C136.717 22.3573 136.426 22.2738 136.163 22.118C135.9 21.9623 135.671 21.7387 135.495 21.4644C135.022 20.6612 134.8 19.6961 134.865 18.7279C134.828 18.2663 134.886 17.8013 135.034 17.3704C135.182 16.9395 135.416 16.555 135.717 16.2479C136.272 15.698 136.986 15.4082 137.717 15.4355C139.828 15.4355 140.865 17.0603 140.865 20.3954C140.874 21.3858 140.701 22.3671 140.356 23.2739C140.011 24.1808 139.503 24.9924 138.865 25.6546C139.203 26.4203 139.357 27.2769 139.309 28.1346C139.303 29.0762 139.101 30.0022 138.721 30.8354C138.34 31.6685 137.793 32.3844 137.124 32.9235C137.576 33.7436 137.948 34.6182 138.235 35.5317L139.161 38.7813C139.498 39.9169 140.116 40.9132 140.939 41.646C141.747 42.3575 142.738 42.7341 143.754 42.715C144.394 42.7712 145.038 42.6579 145.635 42.3837C146.231 42.1096 146.766 41.6818 147.198 41.133C148.058 40.0356 148.51 38.5922 148.458 37.1137ZM395.717 53.1906C395.746 51.3207 395.194 49.5004 394.161 48.0597C393.575 47.3293 392.856 46.7586 392.055 46.3888C391.254 46.019 390.392 45.8595 389.532 45.9218C388.143 45.8654 386.782 46.3739 385.685 47.3587C384.588 48.3434 383.826 49.7417 383.532 51.3093C383.187 49.7513 382.379 48.3831 381.248 47.4448C380.117 46.5065 378.735 46.0581 377.346 46.1784C375.863 46.1619 374.431 46.8049 373.346 47.9742C372.737 48.6922 372.267 49.5513 371.967 50.4948C371.667 51.4383 371.544 52.4447 371.606 53.4472C371.567 54.4364 371.716 55.4235 372.042 56.3393C372.369 57.2551 372.864 58.0775 373.495 58.7492C374.736 60.0926 376.387 60.815 378.087 60.7588C378.848 60.7238 379.604 60.6093 380.346 60.4167C381.909 65.4578 382.601 70.8034 382.384 76.1516C382.384 92.0575 376.877 100.01 365.865 100.01C363.19 100.122 360.533 99.4756 358.124 98.1291C356.042 96.8696 354.242 95.0692 352.865 92.8699C351.448 90.5806 350.429 87.996 349.865 85.259C349.23 82.2794 348.918 79.22 348.939 76.1516C348.744 70.6262 349.422 65.1061 350.939 59.8609L352.161 60.1174H353.087C356.791 60.1174 358.828 57.8085 358.828 53.1479C358.881 52.0853 358.698 51.0247 358.296 50.0668C357.894 49.1089 357.287 48.2855 356.532 47.6749C354.92 46.445 353.019 45.818 351.087 45.8791C348.774 45.7081 346.482 46.4664 344.598 48.0251C342.715 49.5839 341.356 51.8471 340.754 54.4306L335.717 45.8791L330.569 54.4306C329.842 51.7538 328.343 49.4451 326.322 47.8891C324.3 46.3331 321.877 45.6237 319.458 45.8791C317.63 45.8171 315.835 46.4478 314.346 47.6749C313.647 48.3292 313.093 49.1677 312.732 50.12C312.372 51.0723 312.214 52.1106 312.272 53.1479C312.166 55.0088 312.683 56.8458 313.717 58.2788C314.276 58.925 314.949 59.4239 315.691 59.7412C316.432 60.0586 317.225 60.1869 318.013 60.1174C318.787 60.1068 319.558 59.992 320.309 59.7753C320.743 60.9099 321.054 62.1019 321.235 63.3242C321.502 64.7322 321.675 66.1616 321.754 67.6C321.754 69.0965 321.754 70.5503 322.05 71.8758C322.346 73.2013 322.05 74.5695 322.346 75.6812C323.507 87.0833 326.939 95.0363 332.643 99.5401C339.703 104.778 348 107.349 356.383 106.894C375.89 106.894 385.655 96.6183 385.68 76.0661C385.491 70.7362 386.118 65.4097 387.532 60.3312C388.238 60.5145 388.957 60.6289 389.68 60.6733C393.717 60.6733 395.717 58.1505 395.717 53.1906ZM345.05 103.431C342.019 103.07 339.103 101.898 336.532 100.01C334.107 98.2342 331.985 95.9588 330.272 93.2974C328.524 90.6165 327.161 87.6279 326.235 84.4466C325.284 81.147 324.76 77.7036 324.68 74.2275C324.656 67.6714 323.628 61.1718 321.643 55.0292C320.947 55.6888 320.095 56.0911 319.198 56.1837C317.087 56.1837 316.05 55.243 316.05 53.3617C316.054 52.9598 316.141 52.5646 316.301 52.2081C316.462 51.8516 316.693 51.5437 316.976 51.3093C317.626 50.7846 318.405 50.5148 319.198 50.5397C319.959 50.5381 320.706 50.7762 321.359 51.2282C322.012 51.6802 322.545 52.3292 322.902 53.1051C323.898 55.0732 324.623 57.2081 325.05 59.4333C325.582 61.9624 325.941 64.5358 326.124 67.1297C326.346 69.7807 326.458 72.0468 326.569 73.9282C326.668 77.308 327.205 80.6516 328.161 83.848C329.036 86.8881 330.283 89.768 331.865 92.3995C333.459 94.954 335.427 97.1678 337.68 98.9415C339.919 100.701 342.436 101.935 345.087 102.576L345.05 103.431ZM339.309 63.6663C338.145 64.2793 336.885 64.6138 335.606 64.6497C334.283 64.6519 332.992 64.1896 331.902 63.3242C332.818 60.3042 334.063 57.4307 335.606 54.7727C336.384 56.312 337.05 57.8512 337.68 59.3478C338.285 60.7234 338.793 62.1533 339.198 63.6235L339.309 63.6663ZM331.791 67.6C332.948 68.2208 334.221 68.4999 335.495 68.4124C336.773 68.6376 338.08 68.3509 339.198 67.6C338.897 68.4291 338.377 69.1275 337.712 69.5957C337.047 70.0639 336.271 70.2783 335.495 70.2082C334.71 70.2115 333.945 69.927 333.309 69.3958C332.726 68.9787 332.282 68.3457 332.05 67.6H331.791ZM332.606 71.8758C333.208 72.2877 333.909 72.4675 334.606 72.3889C335.404 72.3781 336.2 72.2633 336.976 72.0468C337.579 71.928 338.149 71.65 338.643 71.2344C338.449 71.992 338.077 72.6728 337.569 73.2013C337.034 73.7677 336.331 74.0741 335.606 74.0564C334.918 74.0661 334.244 73.8269 333.68 73.3723C333.203 73.0057 332.829 72.4853 332.606 71.8758ZM333.309 75.6812C333.916 75.9257 334.556 76.0416 335.198 76.0233C335.847 76.025 336.493 75.9389 337.124 75.7668C337.596 75.7103 338.033 75.4508 338.346 75.0399C338.167 75.7726 337.822 76.4368 337.346 76.964C337.153 77.2317 336.909 77.4443 336.632 77.5852C336.356 77.7261 336.056 77.7915 335.754 77.7764C335.117 77.8404 334.483 77.6269 333.976 77.1778C333.569 76.8651 333.238 76.4385 333.013 75.9378L333.309 75.6812ZM333.754 79.4439C334.206 79.6853 334.7 79.8024 335.198 79.786C335.749 79.7878 336.298 79.7014 336.828 79.5294C337.057 79.4757 337.272 79.3632 337.458 79.2004C337.644 79.0376 337.796 78.8285 337.902 78.5888C337.897 79.1891 337.728 79.7725 337.421 80.2563C337.27 80.5169 337.066 80.7311 336.827 80.8801C336.588 81.0291 336.322 81.1086 336.05 81.1115C334.791 81.1115 334.013 80.5556 333.754 79.4439ZM334.754 82.9073C335.415 83.0529 336.093 83.0529 336.754 82.9073C337.07 82.8709 337.376 82.7567 337.651 82.5723C337.925 82.3879 338.163 82.1376 338.346 81.8384C338.331 82.4176 338.148 82.9742 337.828 83.4204C337.686 83.6416 337.502 83.8222 337.29 83.9482C337.078 84.0742 336.844 84.1423 336.606 84.1473C336.237 84.1544 335.873 84.052 335.549 83.8498C335.225 83.6476 334.951 83.3525 334.754 82.9928V82.9073ZM335.902 86.1569C336.441 86.3753 337.029 86.3753 337.569 86.1569C338.087 86.0624 338.559 85.7595 338.902 85.3017C338.902 85.6438 338.68 86.0286 338.569 86.499C338.482 86.718 338.347 86.9078 338.179 87.05C338.01 87.1922 337.813 87.2822 337.606 87.3114C337.247 87.4158 336.868 87.3532 336.549 87.1372C336.23 86.9212 335.998 86.5691 335.902 86.1569ZM355.421 53.661C355.421 55.5423 354.383 56.483 352.272 56.483C351.327 56.411 350.422 56.0084 349.68 55.3285C347.422 61.6803 346.386 68.5225 346.643 75.3819C346.229 82.7273 348.064 90.0071 351.828 95.9484H351.532C350.275 95.0406 349.241 93.7742 348.532 92.2713C347.639 90.5612 346.919 88.7394 346.384 86.841C345.793 84.8428 345.384 82.7794 345.161 80.6839C344.927 78.8718 344.803 77.043 344.791 75.2109C344.791 58.8774 347.235 50.6679 352.198 50.6679C354.384 50.6679 355.495 51.6941 355.495 53.661H355.421ZM392.235 53.661C392.235 55.5423 391.198 56.483 389.087 56.483C388.142 56.411 387.237 56.0084 386.495 55.3285C385.273 58.2725 384.401 61.3935 383.902 64.607H383.495C382.996 61.371 382.072 58.242 380.754 55.3285C379.976 56.0231 379.032 56.426 378.05 56.483C375.902 56.483 374.865 55.5423 374.865 53.661C374.865 51.7796 375.976 50.6679 378.161 50.6679C379.397 50.7049 380.589 51.2045 381.558 52.0913C382.526 52.9782 383.219 54.2043 383.532 55.5851H383.791C384.939 52.25 386.68 50.5824 388.976 50.5824C391.272 50.5824 392.272 51.6086 392.272 53.5755" fill="#CE8D27"/>
<path d="M358.532 1.6676H312.902V4.78892H321.643V44.2543C322.636 44.3795 323.609 44.6675 324.532 45.1095V4.78892H346.754V45.2378C347.648 44.9247 348.565 44.7099 349.495 44.5964V4.78892H358.383L358.532 1.6676ZM340.309 34.4628C340.309 31.7263 339.346 30.187 337.457 30.187C335.569 30.187 334.939 31.3843 334.865 33.6932H335.309C335.865 32.0256 336.569 31.2132 337.457 31.2132C338.346 31.2132 339.013 32.1966 339.013 34.1635C339.093 35.4509 338.764 36.728 338.087 37.7552C337.796 38.1517 337.433 38.4687 337.023 38.6831C336.613 38.8975 336.167 39.0041 335.717 38.9951C333.791 38.9951 332.865 37.3703 332.865 34.1635C332.865 31.7263 333.569 30.2725 335.013 29.8877C334.955 28.9252 335.146 27.9644 335.561 27.1271C335.977 26.2898 336.598 25.6137 337.346 25.1844L337.902 24.9278C338.199 24.8407 338.485 24.7114 338.754 24.543C338.706 23.3226 338.909 22.1065 339.346 20.9941C339.815 19.6338 340.054 18.1824 340.05 16.7183C340.05 12.8274 338.643 10.9033 335.754 10.9033C335.194 10.8607 334.633 10.9656 334.113 11.2101C333.593 11.4545 333.129 11.8321 332.754 12.3143C331.899 13.5101 331.487 15.046 331.606 16.5901C331.606 19.4548 332.68 20.8658 334.902 20.8658C335.328 20.8572 335.745 20.7181 336.109 20.4627C336.474 20.2073 336.773 19.8447 336.976 19.4121C337.451 18.7672 337.713 17.9495 337.717 17.1032H337.013C336.643 18.8562 335.976 19.7541 335.013 19.7541C334.05 19.7541 333.161 18.7707 333.161 16.9321C333.161 15.0935 334.087 13.255 336.013 13.255C336.37 13.2449 336.724 13.3327 337.046 13.511C337.368 13.6894 337.648 13.9533 337.865 14.2811C338.394 15.0907 338.656 16.0908 338.606 17.1032C338.621 18.421 338.269 19.7096 337.602 20.7794C336.935 21.8493 335.989 22.6439 334.902 23.0465C334.95 23.213 334.95 23.393 334.902 23.5596C335.026 24.8394 334.747 26.1281 334.114 27.1886C333.481 28.2492 332.538 29.0102 331.457 29.3319C331.56 29.5378 331.671 29.7376 331.791 29.9305C331.813 30.2007 331.813 30.4727 331.791 30.7429C331.791 31.4185 331.729 32.0922 331.606 32.7525C331.486 33.2846 331.412 33.8287 331.383 34.3773C331.252 36.108 331.659 37.836 332.532 39.2517C332.907 39.7892 333.389 40.2138 333.937 40.4893C334.485 40.7648 335.083 40.883 335.68 40.8337C336.295 40.8582 336.908 40.7296 337.477 40.4566C338.046 40.1837 338.557 39.7727 338.976 39.2517C339.95 37.8892 340.416 36.1362 340.272 34.3773L340.309 34.4628ZM393.569 1.6676H373.346V4.95995H382.087V45.2378C382.738 45.7174 383.243 46.42 383.532 47.2474L383.939 46.6488L384.828 45.4088V4.95995H393.569V1.6676ZM83.2352 82.6936C83.3015 80.7431 83.0237 78.7974 82.4189 76.9746C81.8141 75.1518 80.8947 73.4899 79.7167 72.0897C78.536 70.6894 77.1169 69.5866 75.5488 68.8507C73.9808 68.1148 72.2977 67.7618 70.6056 67.8139C68.7883 67.669 66.9653 67.9757 65.2594 68.7133C63.5535 69.4509 62.0044 70.6022 60.7167 72.0897C58.3414 75.2771 57.1094 79.391 57.2723 83.5915C57.2739 86.4079 57.8122 89.1893 58.8492 91.7387C59.8861 94.288 61.3961 96.5427 63.2723 98.3429C60.6346 100.233 57.5989 101.254 54.4945 101.293C46.2723 101.293 42.1611 92.9554 42.1611 76.2799C41.9365 70.8328 42.5767 65.3842 44.05 60.203C44.7892 60.4168 45.5473 60.5315 46.3093 60.545C47.11 60.6159 47.9144 60.48 48.6639 60.1472C49.4135 59.8144 50.0894 59.293 50.6426 58.6209C51.6433 57.1529 52.156 55.3201 52.088 53.4537C52.0201 51.5873 51.376 49.8105 50.2723 48.4446C49.5537 47.6791 48.7055 47.094 47.7811 46.726C46.8568 46.358 45.8764 46.2153 44.9019 46.3067C42.5112 46.0941 40.1287 46.8241 38.144 48.3775C36.1593 49.9309 34.6899 52.2156 33.976 54.8583L28.8278 46.3067L23.6426 54.8583C23.1033 52.2673 21.7817 49.9831 19.915 48.4158C18.0482 46.8485 15.7587 46.1007 13.4574 46.3067C11.513 46.2451 9.59519 46.8394 7.93892 48.017C7.14796 48.6125 6.51047 49.4429 6.09338 50.421C5.6763 51.399 5.49501 52.4887 5.56855 53.5755C5.4801 55.415 6.01091 57.2228 7.05003 58.6209C7.62254 59.2724 8.30785 59.7767 9.06102 60.1009C9.8142 60.4252 10.6182 60.5619 11.4204 60.5023H12.3463L13.5686 60.2457C14.9876 65.4405 15.6142 70.8803 15.4204 76.3227V82.6081C15.3911 85.0072 14.9505 87.376 14.1241 89.5776C13.1971 89.2684 12.2372 89.1101 11.2723 89.1072C10.3148 89.0138 9.351 89.1477 8.44013 89.5007C7.52925 89.8536 6.69063 90.4182 5.97596 91.1596C5.36129 91.8496 4.87129 92.6735 4.53434 93.5835C4.1974 94.4936 4.02019 95.4719 4.013 96.4616C3.94877 97.6241 4.12327 98.7877 4.52231 99.8577C4.92134 100.928 5.53362 101.874 6.30929 102.619C7.83219 103.95 9.69575 104.657 11.6056 104.628C13.3736 104.667 15.1209 104.184 16.6827 103.227C18.2444 102.269 19.569 100.868 20.5315 99.1553C21.311 100.902 22.5052 102.356 23.9744 103.348C25.4435 104.34 27.127 104.829 28.8278 104.757C30.5376 104.78 32.2231 104.287 33.7173 103.327C35.2114 102.367 36.4624 100.973 37.3463 99.2836C39.2648 101.557 41.5233 103.411 44.013 104.757C47.5429 106.373 51.3309 107.102 55.1241 106.894C58.5559 106.897 61.9755 106.423 65.3093 105.483C68.5058 104.645 71.5596 103.2 74.3463 101.208C76.9822 99.3194 79.2214 96.7781 80.9019 93.7678C82.63 90.4423 83.4915 86.6124 83.3834 82.7363L83.2352 82.6936ZM19.2352 75.8951C19.2352 91.0313 16.692 98.5995 11.6056 98.5995C9.4204 98.5995 8.30929 97.6588 8.30929 95.8202C8.30929 93.9816 9.12411 93.1692 10.7537 93.1692C11.4338 93.1676 12.1012 93.3822 12.6827 93.7895C13.2641 94.1967 13.7372 94.781 14.05 95.4781C16.4574 92.8272 17.7537 86.3708 17.7537 76.0661C18.0545 68.9434 17.0316 61.8289 14.7537 55.2003C13.9632 55.8982 13.0071 56.301 12.013 56.3548C10.013 56.3548 9.013 55.4141 9.013 53.5328C9.00408 53.1332 9.06881 52.7359 9.2029 52.3673C9.33698 51.9988 9.53736 51.6673 9.79077 51.3949C10.4649 50.791 11.3108 50.5011 12.1611 50.5825C14.8278 50.5825 16.8648 54.0459 18.1982 61.0154C18.5686 63.3243 18.8648 65.7187 19.05 68.1987C19.2352 70.6786 19.3463 73.2869 19.3463 75.8951H19.2352ZM31.6797 98.0436C30.7885 98.5304 29.8137 98.7789 28.8278 98.7705C27.9148 98.925 26.9826 98.7734 26.1422 98.3338C25.3017 97.8941 24.5884 97.1849 24.0871 96.2906L24.3834 95.9485C24.9613 96.3827 25.6225 96.647 26.3093 96.7181C27.1413 96.8828 27.9836 96.9686 28.8278 96.9747C29.5482 96.9471 30.266 96.8614 30.976 96.7181C31.8165 96.5865 32.6384 96.3277 33.4204 95.9485L33.6797 96.2906C33.1316 97.0361 32.449 97.6344 31.6797 98.0436ZM32.6797 63.4953C31.5901 64.3607 30.2984 64.823 28.976 64.8208C27.694 64.8092 26.4298 64.4735 25.2723 63.8374C25.68 62.3744 26.1751 60.9457 26.7537 59.5616C27.3834 58.0651 28.0871 56.5258 28.8648 54.9865C29.8278 56.7824 30.6056 58.3644 31.2352 59.8182C31.8648 61.2719 32.3463 62.5119 32.7167 63.6236L32.6797 63.4953ZM32.4574 67.8994C32.0183 68.6624 31.4517 69.3165 30.7908 69.8235C30.2198 70.2677 29.5529 70.5195 28.8648 70.5504C28.1113 70.6547 27.3502 70.445 26.7187 69.959C26.0872 69.4729 25.6268 68.7426 25.4204 67.8994C26.4702 68.571 27.6687 68.8686 28.8648 68.7545C30.1367 68.7603 31.3965 68.4694 32.5686 67.8994H32.4574ZM31.976 71.8759C31.6819 72.5794 31.2354 73.1833 30.6797 73.6289C30.2033 74.1002 29.6028 74.3715 28.976 74.3986C28.2622 74.4272 27.564 74.1535 27.013 73.6289C26.5085 73.1847 26.1337 72.573 25.9389 71.8759C26.3093 72.3462 27.3463 72.56 28.976 72.56C30.009 72.6131 31.038 72.3785 31.976 71.8759ZM31.5315 75.6813C31.2899 76.2292 30.9488 76.7104 30.5315 77.0923C30.119 77.5718 29.5613 77.8478 28.976 77.8619C28.6728 77.8808 28.3694 77.83 28.0833 77.7126C27.7972 77.5952 27.5341 77.4134 27.3093 77.1778C26.8361 76.8245 26.4628 76.3192 26.2352 75.7241C27.0402 76.174 27.939 76.3519 28.8278 76.2372C29.7002 76.2555 30.5676 76.0814 31.3834 75.7241L31.5315 75.6813ZM30.976 79.0592C30.7934 79.6122 30.4866 80.0992 30.0871 80.4702C29.7304 80.8549 29.2604 81.0689 28.7723 81.0689C28.2841 81.0689 27.8141 80.8549 27.4574 80.4702C27.1145 80.0688 26.8493 79.5878 26.6797 79.0592C26.9389 79.4012 27.6797 79.5723 28.8278 79.5723C29.5688 79.5975 30.3045 79.4217 30.976 79.0592ZM30.6797 82.3943C30.589 82.8893 30.3574 83.3351 30.0218 83.6605C29.6861 83.986 29.2658 84.1724 28.8278 84.1901C28.6018 84.2004 28.3765 84.1563 28.166 84.0606C27.9556 83.9649 27.7648 83.8197 27.6056 83.6342C27.3058 83.2837 27.078 82.86 26.9389 82.3943C27.516 82.7582 28.1721 82.9215 28.8278 82.8646C29.467 82.8608 30.0981 82.7005 30.6797 82.3943ZM30.2723 85.5156C30.1494 85.9104 29.9607 86.2736 29.7167 86.5845C29.598 86.7625 29.4469 86.9083 29.2741 87.0117C29.1014 87.1152 28.9111 87.1737 28.7167 87.1831C28.5083 87.1976 28.3001 87.1501 28.1121 87.0454C27.9241 86.9406 27.7625 86.7819 27.6426 86.5845C27.4087 86.2726 27.2322 85.9089 27.1241 85.5156C27.578 85.9167 28.1484 86.1005 28.7167 86.0287C29.2667 86.0298 29.8058 85.852 30.2723 85.5156ZM48.4574 53.5328C48.4574 55.4141 47.4574 56.3548 45.4204 56.3548C44.4762 56.275 43.5738 55.8732 42.8278 55.2003C40.55 61.8289 39.5271 68.9434 39.8278 76.0661C39.673 80.8402 40.0842 85.6162 41.05 90.2617C41.5179 93.0086 42.6328 95.5533 44.2723 97.616V98.1291C43.189 97.4088 42.2433 96.4426 41.4921 95.2889C40.741 94.1351 40.2001 92.8178 39.9019 91.4162C38.5547 86.3954 37.9536 81.1475 38.1241 75.8951C38.0917 70.898 38.5138 65.9108 39.3834 61.0154C40.6426 54.0459 42.6426 50.5825 45.4204 50.5825C45.8307 50.5355 46.245 50.5831 46.6392 50.7226C47.0334 50.862 47.3997 51.0906 47.7167 51.3949C47.958 51.6757 48.1479 52.0097 48.2752 52.377C48.4024 52.7442 48.4644 53.1373 48.4574 53.5328ZM80.6056 82.8646C80.5986 84.6171 80.3227 86.3542 79.7908 87.9955C79.268 89.7939 78.5193 91.4939 77.5686 93.041C76.5578 94.7031 75.3046 96.1499 73.8649 97.3167C72.4278 98.5483 70.8266 99.5015 69.1241 100.139V99.7967C70.0871 99.027 71.1241 98.1291 72.2723 97.0174C73.4316 95.8923 74.4866 94.6313 75.4204 93.2547C76.3948 91.8519 77.1928 90.2972 77.7908 88.6369C78.4313 86.8188 78.7463 84.8698 78.7167 82.9074C78.7532 81.6609 78.5757 80.4185 78.1943 79.2517C77.8129 78.0848 77.2352 77.0167 76.4945 76.1089C75.7414 75.2168 74.8351 74.5164 73.8337 74.0525C72.8323 73.5886 71.758 73.3715 70.6797 73.4151C69.4845 73.3306 68.2885 73.5642 67.1839 74.098C66.0794 74.6318 65.0959 75.4514 64.3093 76.4937C62.8541 78.4579 62.0646 80.9642 62.0871 83.5487C62.1725 87.6228 63.2648 91.5838 65.2352 94.965H64.9389C63.4433 93.5737 62.2422 91.8069 61.4271 89.7989C60.612 87.791 60.2044 85.5949 60.2352 83.3777C60.1799 80.2525 61.115 77.2116 62.8648 74.8261C63.8589 73.604 65.0755 72.6518 66.4269 72.0381C67.7783 71.4244 69.2308 71.1645 70.6797 71.2773C72.0411 71.1702 73.4066 71.401 74.6843 71.9541C75.9621 72.5073 77.1223 73.3699 78.0871 74.4841C79.0026 75.6326 79.7101 76.9806 80.168 78.4492C80.6259 79.9177 80.8251 81.477 80.7537 83.0356L80.6056 82.8646ZM68.2723 79.5723C69.1559 79.5709 70.0199 79.2705 70.7572 78.7081C71.4945 78.1457 72.0727 77.3461 72.4204 76.4082C72.5916 76.8824 72.6797 77.391 72.6797 77.9047C72.6797 78.4184 72.5916 78.927 72.4204 79.4012C72.2598 79.7597 72.0145 80.0583 71.713 80.2626C71.4115 80.4669 71.0661 80.5685 70.7167 80.5557H69.7167C69.2081 80.4371 68.7504 80.12 68.4204 79.6578L68.2723 79.5723ZM70.1241 82.9501C70.8219 82.9613 71.5183 82.8752 72.1982 82.6936C72.9753 82.4738 73.6979 82.0494 74.3093 81.4536C74.341 82.2529 74.1019 83.035 73.6426 83.6342C73.4415 83.9058 73.1801 84.1091 72.8864 84.2221C72.5928 84.3351 72.278 84.3536 71.976 84.2756C71.598 84.2418 71.2325 84.1037 70.9103 83.8731C70.5881 83.6424 70.3185 83.3259 70.1241 82.9501ZM70.4204 89.1072C70.832 89.5678 71.3305 89.9118 71.8768 90.1121C72.4231 90.3124 73.0022 90.3636 73.5686 90.2617C73.4087 90.6344 73.1676 90.9527 72.8689 91.1851C72.5701 91.4175 72.2241 91.5561 71.8649 91.5872C71.6355 91.5903 71.4093 91.525 71.2082 91.3977C71.007 91.2703 70.8378 91.0853 70.7167 90.8603C70.567 90.6065 70.4636 90.3203 70.4126 90.0189C70.3617 89.7175 70.3643 89.4074 70.4204 89.1072ZM70.8278 85.9432C71.3835 86.3708 72.0541 86.5529 72.7167 86.4563C73.3324 86.311 73.9059 85.9873 74.3834 85.5156C74.2988 86.0664 74.0498 86.5656 73.6797 86.9266C73.3203 87.2873 72.8596 87.4848 72.3834 87.4824C72.1613 87.491 71.9407 87.4371 71.7407 87.3254C71.5407 87.2136 71.3672 87.0474 71.2352 86.8411C70.9663 86.4469 70.7651 85.997 70.6426 85.5156L70.8278 85.9432ZM51.5315 1.83863H5.86485V4.95995H14.6426V44.9385L17.4945 45.4088V4.95995H39.7167V45.5798C40.5927 44.9961 41.5952 44.7142 42.6056 44.7674V4.95995H51.3463L51.5315 1.83863ZM30.8648 25.1416L31.7167 24.714C31.6842 23.564 31.8872 22.4213 32.3093 21.3789C32.7604 20.0127 32.9986 18.5652 33.013 17.1032C33.013 13.2122 31.5686 11.2881 28.7167 11.2881C28.1529 11.2627 27.5908 11.3753 27.0674 11.6185C26.544 11.8617 26.0711 12.2299 25.6797 12.6991C24.8425 13.9056 24.4323 15.4333 24.5315 16.9749C24.5315 19.8397 25.6426 21.2507 27.8278 21.2507C28.2758 21.2336 28.7108 21.0725 29.0838 20.7854C29.4568 20.4983 29.753 20.0967 29.9389 19.6259C30.417 18.9068 30.6419 18.0057 30.5686 17.1032H29.9389C29.5315 18.8562 28.8648 19.7541 27.9019 19.7541C26.9389 19.7541 26.05 18.8135 26.05 16.9321C26.05 15.0508 27.013 13.255 28.9019 13.255C29.2641 13.2449 29.6234 13.3325 29.9513 13.5106C30.2791 13.6887 30.5666 13.9525 30.7908 14.2811C31.2804 15.1077 31.5032 16.1064 31.4204 17.1032C31.4413 18.4226 31.0918 19.7143 30.4243 20.7856C29.7567 21.8568 28.8069 22.6499 27.7167 23.0465C27.7744 23.211 27.7744 23.395 27.7167 23.5596C27.81 24.7946 27.5285 26.0287 26.9204 27.0506C26.3123 28.0724 25.4155 28.8184 24.3834 29.1608C24.3834 29.6312 24.3834 29.9305 24.6056 30.187C24.648 30.4556 24.648 30.7308 24.6056 30.9994C24.5935 31.6765 24.519 32.3502 24.3834 33.009C24.3517 33.55 24.3517 34.0929 24.3834 34.6338C24.2523 36.3645 24.6593 38.0925 25.5315 39.5082C25.9067 40.0457 26.389 40.4703 26.9372 40.7458C27.4854 41.0213 28.0833 41.1395 28.6797 41.0903C29.2952 41.1147 29.9081 40.9862 30.4769 40.7132C31.0456 40.4402 31.5569 40.0293 31.976 39.5082C32.8964 38.1182 33.3205 36.3738 33.1611 34.6338C33.1611 31.8973 32.1982 30.3581 30.2723 30.3581C28.3463 30.3581 27.7908 31.5553 27.6797 33.8642H28.1241C28.7167 32.1966 29.4204 31.3843 30.2723 31.3843C31.1241 31.3843 31.8648 32.3677 31.8648 34.3345C31.9452 35.622 31.616 36.899 30.9389 37.9262C30.6481 38.3227 30.2846 38.6397 29.8746 38.8541C29.4647 39.0686 29.0186 39.1752 28.5686 39.1662C26.6426 39.1662 25.6797 37.5414 25.6797 34.3345C25.6797 31.9401 26.4204 30.4436 27.8278 30.0588L30.8648 25.1416ZM315.42 82.6936C315.462 80.7279 315.156 78.773 314.519 76.9494C313.882 75.1257 312.928 73.4719 311.717 72.0897C310.536 70.6894 309.117 69.5866 307.549 68.8507C305.981 68.1148 304.298 67.7618 302.606 67.8139C300.788 67.669 298.965 67.9757 297.259 68.7133C295.553 69.4509 294.004 70.6022 292.717 72.0897C290.341 75.2771 289.109 79.391 289.272 83.5915C289.283 86.4146 289.833 89.2004 290.883 91.7501C291.933 94.2999 293.457 96.5509 295.346 98.3429C292.709 100.233 289.673 101.254 286.569 101.293C278.445 101.265 274.383 92.9127 274.383 76.2372C274.159 70.7901 274.799 65.3414 276.272 60.1602C277.012 60.374 277.77 60.4888 278.532 60.5023C279.332 60.5732 280.137 60.4373 280.886 60.1045C281.636 59.7716 282.312 59.2503 282.865 58.5782C283.866 57.1102 284.378 55.2773 284.31 53.4109C284.242 51.5445 283.598 49.7678 282.495 48.4018C281.776 47.6364 280.928 47.0512 280.003 46.6832C279.079 46.3153 278.099 46.1725 277.124 46.264C274.703 46.0005 272.277 46.7066 270.254 48.2638C268.231 49.821 266.733 52.1343 266.013 54.8155L260.865 46.264L255.68 54.8155C255.14 52.2246 253.819 49.9404 251.952 48.3731C250.085 46.8058 247.796 46.058 245.494 46.264C243.55 46.2023 241.632 46.7967 239.976 47.9743C239.185 48.5698 238.548 49.4002 238.13 50.3782C237.713 51.3563 237.532 52.4459 237.606 53.5328C237.517 55.3722 238.048 57.18 239.087 58.5782C239.661 59.2429 240.351 59.7584 241.111 60.0902C241.871 60.4221 242.684 60.5626 243.495 60.5023H244.42L245.643 60.2457C247.062 65.4405 247.688 70.8803 247.494 76.3227V82.6081C247.465 85.0072 247.025 87.376 246.198 89.5776C245.271 89.2684 244.311 89.1101 243.346 89.1072C242.389 89.0138 241.425 89.1477 240.514 89.5007C239.603 89.8536 238.765 90.4182 238.05 91.1596C237.466 91.8807 237.012 92.728 236.714 93.6526C236.415 94.5772 236.277 95.5609 236.309 96.5471C236.243 97.6851 236.406 98.8253 236.785 99.8786C237.165 100.932 237.749 101.87 238.494 102.619C240.017 103.95 241.881 104.657 243.791 104.628C245.559 104.667 247.306 104.184 248.868 103.227C250.43 102.269 251.754 100.868 252.717 99.1553C253.512 100.878 254.712 102.306 256.18 103.275C257.648 104.243 259.324 104.712 261.013 104.628C262.691 104.615 264.339 104.105 265.798 103.146C267.257 102.188 268.479 100.814 269.346 99.1553C271.265 101.428 273.523 103.283 276.013 104.628C279.543 106.245 283.331 106.974 287.124 106.766C290.556 106.769 293.975 106.295 297.309 105.355C300.506 104.517 303.56 103.072 306.346 101.079C308.982 99.1911 311.221 96.6498 312.902 93.6396C314.63 90.314 315.491 86.4841 315.383 82.6081L315.42 82.6936ZM251.42 75.8951C251.42 91.0313 248.877 98.5995 243.791 98.5995C241.606 98.5995 240.494 97.6588 240.494 95.8202C240.494 93.9816 241.309 93.1692 242.939 93.1692C243.619 93.1676 244.286 93.3822 244.868 93.7895C245.449 94.1967 245.922 94.781 246.235 95.4781C248.643 92.8272 249.939 86.3708 249.939 76.0661C250.24 68.9434 249.217 61.8289 246.939 55.2003C246.148 55.8982 245.192 56.301 244.198 56.3548C242.198 56.3548 241.198 55.4141 241.198 53.5328C241.189 53.1332 241.254 52.7359 241.388 52.3673C241.522 51.9988 241.723 51.6673 241.976 51.3949C242.65 50.791 243.496 50.5011 244.346 50.5825C247.013 50.5825 249.05 54.0459 250.383 61.0154C250.754 63.3243 251.05 65.7187 251.235 68.1987C251.42 70.6786 251.532 73.2869 251.532 75.8951H251.42ZM263.865 98.0436C262.974 98.5304 261.999 98.7789 261.013 98.7705C260.1 98.925 259.168 98.7734 258.327 98.3338C257.487 97.8941 256.774 97.1849 256.272 96.2906L256.569 95.9485C257.146 96.3827 257.808 96.647 258.494 96.7181C260.036 97.062 261.62 97.062 263.161 96.7181C264.002 96.5865 264.824 96.3277 265.606 95.9485L265.865 96.2906C265.317 97.0361 264.634 97.6344 263.865 98.0436ZM264.865 63.4953C263.775 64.3607 262.484 64.823 261.161 64.8208C259.879 64.8092 258.615 64.4735 257.457 63.8374C257.865 62.3744 258.36 60.9457 258.939 59.5616C259.569 58.0651 260.272 56.5258 261.05 54.9865C262.013 56.7824 262.791 58.3644 263.42 59.8182C264.05 61.2719 264.532 62.5119 264.902 63.6236L264.865 63.4953ZM264.643 67.8994C264.204 68.6624 263.637 69.3165 262.976 69.8235C262.405 70.2677 261.738 70.5195 261.05 70.5504C260.296 70.6547 259.535 70.445 258.904 69.959C258.272 69.4729 257.812 68.7426 257.606 67.8994C258.655 68.571 259.854 68.8686 261.05 68.7545C262.322 68.7603 263.582 68.4694 264.754 67.8994H264.643ZM264.161 71.8759C263.867 72.5794 263.421 73.1833 262.865 73.6289C262.389 74.1002 261.788 74.3715 261.161 74.3986C260.448 74.4195 259.753 74.1466 259.198 73.6289C258.694 73.1847 258.319 72.573 258.124 71.8759C258.494 72.3462 259.532 72.56 261.161 72.56C262.194 72.6131 263.223 72.3785 264.161 71.8759ZM263.717 75.6813C263.475 76.2292 263.134 76.7104 262.717 77.0923C262.304 77.5718 261.746 77.8478 261.161 77.8619C260.858 77.8808 260.555 77.83 260.268 77.7126C259.982 77.5952 259.719 77.4134 259.495 77.1778C259.07 76.789 258.75 76.2705 258.569 75.6813C259.374 76.1312 260.272 76.3091 261.161 76.1944C262.034 76.2128 262.901 76.0386 263.717 75.6813ZM263.309 79.0164C263.127 79.5695 262.82 80.0565 262.42 80.4274C262.064 80.8122 261.594 81.0262 261.106 81.0262C260.617 81.0262 260.147 80.8122 259.791 80.4274C259.448 80.026 259.183 79.5451 259.013 79.0164C259.272 79.3585 260.013 79.5295 261.161 79.5295C261.902 79.5547 262.638 79.379 263.309 79.0164ZM263.013 82.3515C262.922 82.8466 262.691 83.2923 262.355 83.6178C262.02 83.9432 261.599 84.1297 261.161 84.1473C260.935 84.1577 260.71 84.1136 260.499 84.0179C260.289 83.9222 260.098 83.777 259.939 83.5915C259.639 83.2409 259.411 82.8172 259.272 82.3515C259.849 82.7154 260.505 82.8788 261.161 82.8219C261.8 82.818 262.431 82.6577 263.013 82.3515ZM262.717 85.6439C262.594 86.0387 262.405 86.4019 262.161 86.7128C262.042 86.8908 261.891 87.0366 261.719 87.14C261.546 87.2434 261.356 87.3019 261.161 87.3114C260.953 87.3259 260.745 87.2784 260.557 87.1736C260.369 87.0688 260.207 86.9102 260.087 86.7128C259.853 86.4009 259.677 86.0372 259.569 85.6439C260.022 86.045 260.593 86.2288 261.161 86.157C261.711 86.1581 262.25 85.9803 262.717 85.6439ZM280.828 53.49C280.828 55.3714 279.828 56.312 277.791 56.312C276.847 56.2322 275.944 55.8304 275.198 55.1576C272.92 61.7861 271.897 68.9007 272.198 76.0234C272.092 80.8052 272.553 85.5814 273.569 90.2189C274.036 92.9658 275.151 95.5105 276.791 97.5733V98.0864C275.708 97.366 274.762 96.3998 274.011 95.2461C273.26 94.0924 272.719 92.775 272.42 91.3734C271.073 86.3526 270.472 81.1048 270.643 75.8523C270.61 70.8552 271.032 65.868 271.902 60.9726C273.161 54.0031 275.161 50.5397 277.939 50.5397C278.349 50.4927 278.764 50.5403 279.158 50.6798C279.552 50.8193 279.918 51.0478 280.235 51.3521C280.477 51.633 280.666 51.9669 280.794 52.3342C280.921 52.7015 280.983 53.0945 280.976 53.49H280.828ZM313.124 82.8219C313.117 84.5743 312.841 86.3114 312.309 87.9528C311.787 89.7511 311.038 91.4511 310.087 92.9982C309.082 94.6661 307.828 96.114 306.383 97.274C304.964 98.5135 303.374 99.4675 301.68 100.096V99.7539C302.643 98.9843 303.68 98.0864 304.828 96.9747C305.897 95.8344 306.865 94.574 307.717 93.212C308.691 91.8091 309.489 90.2545 310.087 88.5941C310.728 86.776 311.043 84.827 311.013 82.8646C311.05 81.6182 310.872 80.3757 310.491 79.2089C310.109 78.0421 309.531 76.974 308.791 76.0661C307.112 74.2913 304.899 73.3429 302.623 73.4228C300.347 73.5026 298.188 74.6044 296.606 76.4937C295.15 78.4579 294.361 80.9642 294.383 83.5487C294.469 87.6228 295.561 91.5838 297.532 94.965H297.235C295.74 93.5737 294.539 91.8069 293.723 89.7989C292.908 87.791 292.501 85.5949 292.532 83.3777C292.476 80.2525 293.411 77.2116 295.161 74.8261C296.155 73.604 297.372 72.6518 298.723 72.0381C300.075 71.4244 301.527 71.1645 302.976 71.2773C304.337 71.1702 305.703 71.401 306.981 71.9541C308.258 72.5073 309.419 73.3699 310.383 74.4841C311.299 75.6326 312.006 76.9806 312.464 78.4492C312.922 79.9177 313.121 81.477 313.05 83.0356L313.124 82.8219ZM300.309 79.4012C301.193 79.3999 302.057 79.0994 302.794 78.537C303.532 77.9747 304.11 77.175 304.457 76.2372C304.629 76.7113 304.717 77.22 304.717 77.7337C304.717 78.2474 304.629 78.756 304.457 79.2302C304.297 79.5887 304.052 79.8873 303.75 80.0916C303.449 80.2959 303.103 80.3975 302.754 80.3847H301.754C301.245 80.2661 300.787 79.949 300.457 79.4867L300.309 79.4012ZM302.161 82.7791C302.859 82.7903 303.555 82.7041 304.235 82.5225C305.004 82.3104 305.716 81.8847 306.309 81.2826C306.351 82.076 306.126 82.8574 305.68 83.4632C305.479 83.7348 305.217 83.938 304.923 84.051C304.63 84.164 304.315 84.1825 304.013 84.1046C303.635 84.0707 303.27 83.9327 302.947 83.702C302.625 83.4714 302.356 83.1549 302.161 82.7791ZM302.457 88.9362C302.869 89.3967 303.368 89.7407 303.914 89.941C304.46 90.1414 305.039 90.1926 305.606 90.0907C305.446 90.4634 305.205 90.7816 304.906 91.0141C304.607 91.2465 304.261 91.3851 303.902 91.4162C303.673 91.4193 303.446 91.354 303.245 91.2266C303.044 91.0993 302.875 90.9142 302.754 90.6893C302.604 90.4355 302.501 90.1492 302.45 89.8479C302.399 89.5465 302.401 89.2364 302.457 88.9362ZM302.865 85.7721C303.421 86.1997 304.091 86.3819 304.754 86.2852C305.399 86.3035 306.038 86.1266 306.606 85.7721C306.521 86.3229 306.272 86.8221 305.902 87.1831C305.543 87.5438 305.082 87.7414 304.606 87.739C304.384 87.7476 304.163 87.6937 303.963 87.5819C303.763 87.4702 303.589 87.304 303.457 87.0976C303.189 86.7035 302.987 86.2536 302.865 85.7721ZM283.717 1.83863H238.05V4.95995H246.828V44.9385L249.68 45.4088V4.95995H271.902V45.5798C272.766 45.0018 273.756 44.72 274.754 44.7674V4.95995H283.532L283.717 1.83863ZM263.05 25.1416L263.902 24.714C263.869 23.564 264.072 22.4213 264.495 21.3789C264.946 20.0127 265.184 18.5652 265.198 17.1032C265.198 13.2122 263.754 11.2881 260.902 11.2881C260.338 11.2627 259.776 11.3753 259.253 11.6185C258.729 11.8617 258.256 12.2299 257.865 12.6991C257.028 13.9056 256.618 15.4333 256.717 16.9749C256.717 19.8397 257.828 21.2507 260.013 21.2507C260.446 21.2496 260.87 21.1141 261.241 20.8583C261.613 20.6025 261.918 20.2358 262.124 19.7969C262.611 19.0667 262.837 18.1482 262.754 17.2314H262.05C261.643 18.9845 260.976 19.8824 260.013 19.8824C259.05 19.8824 258.161 18.9417 258.161 17.0604C258.161 15.1791 259.124 13.3832 261.013 13.3832C261.375 13.3732 261.735 13.4607 262.062 13.6389C262.39 13.817 262.678 14.0808 262.902 14.4094C263.418 15.2247 263.667 16.2243 263.606 17.2314C263.626 18.5508 263.277 19.8426 262.609 20.9138C261.942 21.985 260.992 22.7782 259.902 23.1748C259.96 23.3393 259.96 23.5233 259.902 23.6879C260.026 24.9676 259.747 26.2563 259.114 27.3169C258.481 28.3774 257.538 29.1385 256.457 29.4602C256.457 29.9305 256.457 30.2298 256.68 30.4863C256.722 30.7549 256.722 31.0301 256.68 31.2987C256.668 31.9758 256.593 32.6495 256.457 33.3084C256.426 33.8493 256.426 34.3922 256.457 34.9331C256.326 36.6638 256.733 38.3918 257.606 39.8075C257.981 40.345 258.463 40.7696 259.011 41.0451C259.56 41.3206 260.157 41.4388 260.754 41.3896C261.369 41.4141 261.982 41.2855 262.551 41.0125C263.12 40.7395 263.631 40.3286 264.05 39.8075C265.01 38.4363 265.474 36.6901 265.346 34.9331C265.346 32.1966 264.383 30.6574 262.457 30.6574C260.532 30.6574 259.976 31.8546 259.865 34.1635H260.309C260.902 32.496 261.606 31.6836 262.457 31.6836C263.309 31.6836 264.05 32.667 264.05 34.6338C264.13 35.9213 263.801 37.1983 263.124 38.2255C262.833 38.622 262.47 38.939 262.06 39.1534C261.65 39.3679 261.204 39.4745 260.754 39.4655C258.828 39.4655 257.865 37.8407 257.865 34.6338C257.865 32.2394 258.606 30.7429 260.013 30.3581L263.05 25.1416ZM589.198 99.1126C589.262 97.2438 588.721 95.4147 587.68 93.9816C587.105 93.2772 586.401 92.7308 585.619 92.383C584.836 92.0351 583.997 91.8947 583.161 91.972C581.675 91.9843 580.248 92.6405 579.161 93.8106C578.865 91.9293 578.569 89.8769 578.272 87.568C577.976 85.259 577.754 83.0356 577.495 80.7267C577.235 78.4178 576.976 76.1089 576.643 73.9282C576.361 71.9574 575.953 70.0136 575.42 68.1132C573.637 60.9791 569.779 54.7726 564.495 50.5397C558.44 46.3771 551.46 44.3554 544.42 44.7247C542.521 44.7482 540.626 44.9484 538.754 45.3233C536.664 45.7133 534.615 46.3582 532.643 47.2474C530.644 48.1225 528.761 49.3171 527.05 50.7963C525.272 52.2594 523.741 54.0852 522.532 56.1838L517.383 47.6322L512.198 56.1838C511.652 53.5971 510.329 51.3181 508.464 49.7521C506.599 48.1862 504.313 47.435 502.013 47.6322C500.066 47.5908 498.149 48.1995 496.495 49.3853C495.704 49.9808 495.066 50.8112 494.649 51.7892C494.232 52.7673 494.051 53.8569 494.124 54.9438C494.022 56.8187 494.568 58.6638 495.643 60.0747C496.217 60.7207 496.904 61.2186 497.657 61.5356C498.41 61.8525 499.213 61.9812 500.013 61.9133H500.939L502.161 61.6567C503.604 66.8454 504.231 72.2901 504.013 77.7337V80.6412C504.013 81.7957 504.013 82.9929 503.791 84.2756C503.569 85.5583 503.532 86.7556 503.346 87.91C503.174 88.9539 502.939 89.9826 502.643 90.9886C501.703 90.6714 500.732 90.4989 499.754 90.4755C498.794 90.3928 497.83 90.5359 496.919 90.896C496.009 91.2561 495.172 91.8258 494.457 92.5706C493.863 93.3177 493.402 94.1938 493.104 95.1481C492.805 96.1023 492.673 97.1157 492.717 98.1291C492.673 99.2577 492.858 100.382 493.257 101.414C493.655 102.446 494.257 103.356 495.013 104.072C496.51 105.508 498.401 106.281 500.346 106.253C502.109 106.292 503.852 105.81 505.408 104.852C506.964 103.894 508.281 102.492 509.235 100.78C510.036 102.506 511.244 103.936 512.718 104.904C514.193 105.873 515.874 106.34 517.569 106.253C519.223 106.215 520.841 105.692 522.273 104.735C523.704 103.778 524.902 102.417 525.754 100.78C526.644 102.483 527.907 103.885 529.415 104.845C530.923 105.806 532.624 106.292 534.346 106.253C536.279 106.285 538.172 105.611 539.754 104.329C540.556 103.635 541.194 102.719 541.608 101.665C542.022 100.611 542.2 99.4541 542.124 98.3002C542.175 97.2598 542.048 96.2181 541.749 95.2349C541.45 94.2516 540.986 93.3462 540.383 92.5706C539.669 91.8258 538.832 91.2561 537.921 90.896C537.011 90.5359 536.047 90.3928 535.087 90.4755C534.106 90.4589 533.13 90.6324 532.198 90.9886C531.323 86.6394 530.839 82.1976 530.754 77.7337C530.754 62.3979 534.013 54.7157 540.532 54.6872C542.477 54.6899 544.37 55.4205 545.926 56.7695C547.482 58.1185 548.617 60.0133 549.161 62.1698C551.334 68.4695 552.42 79.2872 552.42 94.623V100.78C552.42 102.747 552.161 104.714 551.976 106.552C553.552 106.3 555.056 105.633 556.372 104.603C557.689 103.572 558.783 102.206 559.569 100.609C560.006 102.151 560.853 103.493 561.991 104.445C563.128 105.397 564.497 105.91 565.902 105.911C567.322 106.012 568.728 105.537 569.877 104.569C571.026 103.601 571.847 102.201 572.198 100.609C573.025 102.504 574.312 104.079 575.902 105.141C577.607 106.339 579.573 106.947 581.569 106.894C586.569 106.894 588.976 104.286 588.976 99.1126H589.198ZM507.865 77.2206C507.865 92.3568 505.396 99.925 500.457 99.925C498.161 99.925 496.976 98.9415 496.976 96.9319C496.976 94.9223 497.791 94.452 499.42 94.452C500.111 94.4464 500.789 94.6637 501.378 95.0792C501.966 95.4947 502.443 96.092 502.754 96.8036C505.124 94.1527 506.457 87.6535 506.457 77.3916C506.749 70.2657 505.713 63.1505 503.42 56.5258C502.632 57.2286 501.675 57.6319 500.68 57.6803C498.68 57.6803 497.68 56.7396 497.68 54.8583C497.671 54.4586 497.736 54.0614 497.87 53.6928C498.004 53.3243 498.204 52.9928 498.457 52.7204C499.13 52.1086 499.974 51.8042 500.828 51.8652C503.532 51.8652 505.532 55.3714 506.865 62.3409C507.268 64.7145 507.552 67.1129 507.717 69.5242C507.93 72.0821 508.029 74.6509 508.013 77.2206H507.865ZM520.383 99.3263C519.486 99.8416 518.497 100.105 517.495 100.096C516.582 100.245 515.651 100.091 514.812 99.652C513.972 99.2128 513.258 98.5066 512.754 97.616L513.05 97.274C513.628 97.7082 514.289 97.9725 514.976 98.0436C515.809 98.1937 516.651 98.2652 517.495 98.2574C518.214 98.2492 518.932 98.1777 519.643 98.0436C520.483 97.912 521.305 97.6532 522.087 97.274L522.383 97.616C521.825 98.3385 521.145 98.9207 520.383 99.3263ZM521.383 64.8208C520.289 65.6742 519 66.1353 517.68 66.1463C516.393 66.1359 515.126 65.7848 513.976 65.1201C514.386 63.6518 514.894 62.2223 515.495 60.8444C516.087 59.3478 516.791 57.8086 517.569 56.2693C518.532 58.0223 519.309 59.6471 519.939 61.0581C520.569 62.4691 521.05 63.7946 521.458 64.9063L521.383 64.8208ZM521.161 69.1821C520.702 69.9261 520.139 70.5763 519.495 71.1062C518.924 71.5505 518.257 71.8022 517.569 71.8331C516.815 71.9374 516.054 71.7277 515.422 71.2417C514.791 70.7557 514.331 70.0253 514.124 69.1821C515.174 69.8538 516.372 70.1513 517.569 70.0373C518.841 70.0478 520.101 69.7568 521.272 69.1821H521.161ZM520.68 73.1586C520.391 73.8532 519.958 74.4552 519.42 74.9117C518.925 75.3678 518.313 75.6232 517.68 75.6385C516.982 75.6807 516.295 75.4216 515.754 74.9117C515.259 74.4475 514.876 73.8436 514.643 73.1586C515.569 73.7461 516.63 73.9853 517.68 73.8427C518.712 73.8785 519.737 73.6446 520.68 73.1586ZM520.272 76.964C520.02 77.504 519.681 77.983 519.272 78.375C518.842 78.8501 518.275 79.1243 517.68 79.1447C517.068 79.1735 516.471 78.9283 516.013 78.4606C515.608 78.051 515.291 77.5388 515.087 76.964C515.895 77.4032 516.791 77.5806 517.68 77.4771C518.564 77.4917 519.443 77.3178 520.272 76.964ZM519.828 80.2991C519.645 80.8406 519.353 81.3242 518.976 81.7102C518.62 82.083 518.16 82.2955 517.68 82.3088C517.428 82.3218 517.177 82.2755 516.941 82.1726C516.705 82.0696 516.49 81.9123 516.309 81.7102C515.966 81.3088 515.701 80.8278 515.532 80.2991C515.791 80.6412 516.532 80.8122 517.68 80.8122C518.421 80.8423 519.158 80.6664 519.828 80.2991ZM519.532 83.5915C519.161 84.8315 518.532 85.4301 517.68 85.4301C517.454 85.4404 517.228 85.3963 517.018 85.3006C516.807 85.2049 516.617 85.0597 516.457 84.8742C516.148 84.5154 515.92 84.0751 515.791 83.5915C516.36 83.9825 517.019 84.1617 517.68 84.1046C518.324 84.1116 518.96 83.9354 519.532 83.5915ZM519.272 86.9266C519.134 87.3225 518.933 87.685 518.68 87.9955C518.561 88.1735 518.41 88.3193 518.237 88.4227C518.064 88.5262 517.874 88.5847 517.68 88.5941C517.471 88.6086 517.263 88.5611 517.075 88.4564C516.887 88.3516 516.725 88.1929 516.606 87.9955C516.385 87.6731 516.21 87.3123 516.087 86.9266C516.546 87.3126 517.116 87.4809 517.68 87.3969C518.237 87.4078 518.788 87.2454 519.272 86.9266ZM537.791 96.8464C537.791 98.856 536.606 99.8394 534.087 99.8394C529.149 99.8394 526.68 92.2713 526.68 77.1351C526.68 65.1344 528.593 57.0674 532.42 52.9342H532.828C529.502 60.3987 527.968 68.7548 528.383 77.1351C528.383 87.3969 529.532 93.8961 531.865 96.5471C532.17 95.8484 532.635 95.2596 533.21 94.845C533.784 94.4303 534.446 94.2056 535.124 94.1954C536.754 94.1954 537.569 95.0506 537.569 96.6754L537.791 96.8464ZM556.531 96.6754C556.437 97.1789 556.23 97.6452 555.931 98.0278C555.633 98.4104 555.252 98.6959 554.828 98.856C555.383 73.4151 552.569 58.1506 546.346 52.9342H546.939C549.38 54.8147 551.327 57.4325 552.569 60.5023C554.206 64.685 555.304 69.1218 555.828 73.6717C556.373 77.919 556.658 82.2054 556.68 86.499V96.9319L556.531 96.6754ZM563.124 60.5023C561.434 61.8297 559.427 62.5171 557.383 62.4691C556.681 59.813 555.827 57.2134 554.828 54.6872C556.506 54.8498 558.129 55.4596 559.568 56.4686C561.008 57.4776 562.225 58.8584 563.124 60.5023ZM565.42 65.4622C565.451 65.9702 565.36 66.4782 565.158 66.9306C564.955 67.383 564.649 67.7625 564.272 68.0277C563.489 68.8364 562.472 69.2786 561.42 69.2676C560.807 69.2951 560.202 69.1049 559.685 68.7226C559.169 68.3403 558.766 67.7844 558.532 67.1297C559.079 67.4041 559.677 67.5215 560.272 67.4718C561.269 67.4569 562.258 67.2548 563.198 66.8732C564.022 66.6041 564.782 66.1215 565.42 65.4622ZM565.717 69.4387C565.552 70.3717 565.122 71.2143 564.495 71.8331C563.924 72.4247 563.187 72.7588 562.42 72.7738C561.877 72.8091 561.338 72.6519 560.875 72.3233C560.411 71.9946 560.046 71.5103 559.828 70.9352C560.216 71.2104 560.671 71.3306 561.124 71.2773C562.03 71.2536 562.928 71.0808 563.791 70.7642C564.549 70.6027 565.233 70.1324 565.717 69.4387ZM584.532 99.3691C584.532 101.464 583.457 102.49 581.383 102.49C580.509 102.541 579.64 102.319 578.865 101.849C578.257 101.434 577.697 100.931 577.198 100.353C576.139 98.7352 575.405 96.8655 575.05 94.8795C574.245 91.1842 573.675 87.4257 573.346 83.6342C572.803 79.1874 572.285 75.5388 571.791 72.6883C571.381 69.9322 570.711 67.2365 569.791 64.6498C568.856 62.3004 567.606 60.1359 566.087 58.2361C564.294 56.067 562.322 54.1051 560.198 52.3783L560.754 52.0363C562.952 53.324 565.036 54.8563 566.976 56.6113C568.612 58.2003 569.959 60.1476 570.939 62.3409C572.047 64.8549 572.857 67.53 573.346 70.2938C574.065 73.95 574.621 77.6463 575.013 81.3681C576.272 91.8865 577.457 97.5305 578.717 98.2574C579.546 97.1235 580.732 96.4161 582.013 96.2906C582.365 96.2336 582.724 96.2718 583.061 96.4021C583.398 96.5324 583.704 96.7512 583.955 97.0414C584.207 97.3315 584.396 97.6851 584.509 98.0741C584.622 98.4632 584.655 98.8772 584.606 99.2836L584.532 99.3691ZM566.087 73.6289C565.901 74.3888 565.496 75.0526 564.939 75.5103C564.463 75.9816 563.862 76.2528 563.235 76.2799C562.768 76.3149 562.304 76.1759 561.911 75.8834C561.517 75.5909 561.216 75.1603 561.05 74.6551C561.457 74.8649 561.9 74.9672 562.346 74.9544C563.078 74.9513 563.804 74.8068 564.495 74.5268C565.081 74.3808 565.627 74.0726 566.087 73.6289ZM566.087 77.0923C565.973 77.6702 565.704 78.1918 565.318 78.5833C564.933 78.9747 564.45 79.216 563.939 79.273C563.471 79.3097 563.006 79.1658 562.617 78.8639C562.229 78.562 561.938 78.1192 561.791 77.6054C562.275 77.8743 562.811 77.9922 563.346 77.9475C563.885 77.9404 564.42 77.8542 564.939 77.6909C565.361 77.6146 565.758 77.4078 566.087 77.0923ZM566.087 100.139C563.976 100.139 562.643 99.4119 562.087 98.0009V97.6588C563.176 98.501 564.49 98.865 565.791 98.685C567.188 98.7188 568.572 98.367 569.828 97.6588V98.0009C569.359 98.7018 568.75 99.262 568.054 99.6342C567.358 100.006 566.594 100.179 565.828 100.139H566.087ZM565.828 80.4274C565.532 81.7529 564.902 82.3943 563.976 82.3943C563.584 82.4279 563.194 82.3004 562.876 82.0344C562.557 81.7684 562.33 81.3809 562.235 80.9405C562.816 81.1377 563.433 81.1377 564.013 80.9405C564.644 80.8653 565.258 80.6627 565.828 80.3419V80.4274ZM565.828 83.677C565.63 84.8742 565.149 85.4728 564.383 85.4728C564.012 85.4788 563.651 85.3312 563.366 85.0568C563.081 84.7823 562.89 84.3991 562.828 83.9763C562.828 84.2329 563.495 84.3184 564.309 84.3184C565.124 84.3184 565.643 84.1046 565.828 83.677Z" fill="#CE8D27"/>
<path d="M540.198 3.16408H494.568V6.28539H503.309V46.2639C504.285 46.2805 505.256 46.4385 506.198 46.7342V6.28539H528.42V47.4184C529.33 46.7934 530.3 46.2912 531.309 45.9218V6.28539H540.05L540.198 3.16408ZM521.68 35.9593C521.68 33.18 520.717 31.6835 518.828 31.6835C516.939 31.6835 516.309 32.8807 516.235 35.1896H516.643C517.235 33.5221 517.939 32.7097 518.828 32.7097C519.717 32.7097 520.383 33.6931 520.383 35.66C520.465 36.9344 520.135 38.1985 519.457 39.2089C519.172 39.6127 518.809 39.9347 518.398 40.1498C517.987 40.365 517.538 40.4673 517.087 40.4489C515.161 40.4489 514.235 38.8668 514.235 35.66C514.235 33.2228 514.939 31.769 516.383 31.3842C516.335 30.4076 516.542 29.4367 516.978 28.5979C517.414 27.7591 518.059 27.0911 518.828 26.6808L519.383 26.4243C519.68 26.3372 519.966 26.2079 520.235 26.0395C520.187 24.8191 520.39 23.603 520.828 22.4906C521.296 21.13 521.535 19.6788 521.531 18.2148C521.531 14.3666 520.124 12.4425 517.235 12.4425C516.675 12.4 516.114 12.5049 515.594 12.7493C515.075 12.9937 514.61 13.3713 514.235 13.8535C513.381 15.0493 512.968 16.5853 513.087 18.1293C513.087 20.9941 514.161 22.4051 516.383 22.4051C516.81 22.3965 517.226 22.2573 517.591 22.0019C517.955 21.7465 518.254 21.3839 518.457 20.9513C518.945 20.2211 519.17 19.3026 519.087 18.3858H518.383C518.013 20.1817 517.346 21.0368 516.383 21.0368C515.42 21.0368 514.494 20.0962 514.494 18.2576C514.494 16.419 515.457 14.5804 517.383 14.5804C517.74 14.5703 518.094 14.6581 518.416 14.8365C518.738 15.0149 519.019 15.2788 519.235 15.6066C519.756 16.4047 520.018 17.388 519.976 18.3858C519.993 19.7094 519.643 21.0044 518.976 22.0816C518.31 23.1587 517.362 23.9613 516.272 24.3719C516.32 24.5385 516.32 24.7185 516.272 24.885C516.397 26.1648 516.117 27.4535 515.484 28.5141C514.851 29.5746 513.908 30.3357 512.828 30.6573C512.879 31.0053 512.954 31.3483 513.05 31.6835C513.072 31.9537 513.072 32.2257 513.05 32.4959C513.052 33.1575 512.99 33.8172 512.865 34.4628C512.747 35.0097 512.673 35.5678 512.643 36.1303C512.511 37.861 512.919 39.589 513.791 41.0047C514.166 41.5422 514.648 41.9668 515.196 42.2423C515.745 42.5178 516.342 42.636 516.939 42.5867C517.554 42.6112 518.167 42.4826 518.736 42.2097C519.305 41.9367 519.816 41.5258 520.235 41.0047C521.195 39.6335 521.66 37.8873 521.531 36.1303L521.68 35.9593ZM578.087 3.16408H554.568V6.28539H568.05L537.346 44.0833C537.828 44.0833 538.383 44.0833 538.976 43.8267C539.688 43.7692 540.394 43.6405 541.087 43.4419L571.939 6.28539H578.087V3.16408ZM482.643 78.2467C482.637 76.477 482.463 74.7134 482.124 72.9875C481.826 71.3878 481.3 69.8563 480.568 68.4552C479.863 67.1555 478.898 66.0704 477.754 65.2911C476.435 64.4756 474.953 64.0773 473.457 64.1367C472.458 64.1073 471.463 64.3118 470.534 64.738C469.605 65.1642 468.76 65.8033 468.05 66.6166C467.353 67.4823 466.811 68.4982 466.455 69.6062C466.1 70.7141 465.937 71.8922 465.976 73.073C465.924 74.1628 466.062 75.2535 466.38 76.2814C466.698 77.3092 467.19 78.2535 467.828 79.0591C469.333 80.6282 471.282 81.5099 473.309 81.5391C473.365 82.2074 473.365 82.8803 473.309 83.5487C473.361 85.8587 472.981 88.1544 472.195 90.2794C471.409 92.4044 470.235 94.3089 468.754 95.8629C465.677 99.1751 461.588 100.943 457.383 100.78C454.275 100.923 451.213 99.8706 448.68 97.787C446.399 95.7559 444.581 93.1144 443.383 90.0906C442.049 86.786 441.15 83.2694 440.717 79.6577C440.25 75.9479 440.014 72.204 440.013 68.4552C439.991 67.0239 440.078 65.5932 440.272 64.1794C440.494 62.8967 440.68 61.7422 440.865 60.5878C441.715 60.8163 442.585 60.931 443.457 60.9298C447.383 60.9298 449.309 58.5781 449.309 53.7893C449.344 52.801 449.182 51.8167 448.835 50.9122C448.489 50.0078 447.966 49.2074 447.309 48.5728C445.927 47.2904 444.192 46.6229 442.42 46.6915C440 46.8032 437.649 47.6535 435.606 49.1557C433.563 50.6579 431.902 52.7583 430.791 55.243L426.235 47.2473L421.643 55.5851C420.668 53.1035 419.11 50.9868 417.146 49.4753C415.182 47.9638 412.891 47.1179 410.531 47.0336C408.711 46.987 406.928 47.6331 405.457 48.8721C404.683 49.5291 404.068 50.4054 403.672 51.4165C403.277 52.4275 403.113 53.5393 403.198 54.6444C403.169 56.4065 403.741 58.1112 404.791 59.3905C405.307 60.0088 405.929 60.4956 406.618 60.8196C407.307 61.1436 408.047 61.2977 408.791 61.2719C409.222 61.3067 409.655 61.3067 410.087 61.2719C410.524 61.247 410.958 61.1755 411.383 61.0581C411.952 67.7999 413.195 74.443 415.087 80.8549C416.662 86.1746 419.186 91.0541 422.494 95.1788C425.884 99.1309 430.015 102.13 434.568 103.944C440.116 106.086 445.943 107.099 451.791 106.937C459.739 107.455 467.595 104.764 474.013 99.3263C476.651 96.7618 478.742 93.5299 480.123 89.8816C481.504 86.2332 482.138 82.2666 481.976 78.2895L482.643 78.2467ZM432.161 100.01C429.087 98.1213 426.339 95.6 424.05 92.5706C421.723 89.4512 419.791 85.9675 418.309 82.2232C416.791 78.3689 415.72 74.3004 415.124 70.1227C414.894 69.1416 414.733 68.1407 414.643 67.1297C414.643 65.8897 414.309 64.607 414.124 63.2387C413.939 61.8705 413.717 60.5022 413.494 59.2623C413.272 58.0223 412.976 56.8678 412.68 55.8417C412.241 56.26 411.739 56.5792 411.198 56.7823C410.784 56.8952 410.363 56.9667 409.939 56.9961C408.05 56.9961 407.087 56.0982 407.087 54.2169C407.087 52.3355 408.124 51.2238 410.235 51.2238C412.926 51.2238 414.704 53.8748 415.568 59.1768C415.865 60.9298 416.087 62.6829 416.272 64.4787C416.457 66.2746 416.717 68.0704 416.976 69.909C417.974 77.8413 420.947 85.2683 425.531 91.2878C430.136 96.8955 436.056 100.833 442.568 102.619V103.303C438.93 103.02 435.383 101.855 432.161 99.8822V100.01ZM428.013 64.5215C427.507 64.5514 427 64.5514 426.494 64.5215H424.865C424.086 64.3928 423.333 64.1031 422.643 63.6663L426.346 54.5589L429.939 64.1367C429.324 64.4554 428.677 64.6852 428.013 64.8208V64.5215ZM429.68 68.7973C429.623 69.1903 429.49 69.5636 429.292 69.8893C429.093 70.215 428.833 70.4848 428.531 70.6786C427.788 71.2116 426.925 71.4793 426.05 71.4482C425.366 71.4301 424.699 71.1933 424.124 70.7641C423.475 70.2882 422.961 69.6048 422.643 68.7973C423.72 69.3278 424.879 69.604 426.05 69.6097C426.784 69.6047 427.515 69.5188 428.235 69.3531C428.745 69.2853 429.237 69.096 429.68 68.7973ZM429.68 72.4317C429.478 73.1029 429.134 73.7054 428.68 74.1847C428.146 74.6753 427.505 74.986 426.828 75.0826C426.207 75.1771 425.576 75.0581 425.013 74.7406C424.375 74.3853 423.855 73.7999 423.531 73.073C424.202 73.4403 424.938 73.6162 425.68 73.5861C427.183 73.6539 428.669 73.1916 429.939 72.2606L429.68 72.4317ZM429.939 76.0661C429.818 76.6895 429.518 77.2473 429.087 77.6481C428.615 78.1231 428.009 78.3817 427.383 78.375C426.883 78.3707 426.39 78.2393 425.939 77.9902C425.464 77.7073 425.067 77.2781 424.791 76.7502C425.357 76.8174 425.928 76.8174 426.494 76.7502C427.202 76.739 427.907 76.6676 428.605 76.5364C429.086 76.4673 429.544 76.2616 429.939 75.9378V76.0661ZM430.383 79.2729C430.456 79.6176 430.454 79.9779 430.376 80.3212C430.299 80.6646 430.148 80.9803 429.939 81.2398C429.528 81.6854 428.984 81.9305 428.42 81.9239C427.957 81.9299 427.501 81.7947 427.098 81.5319C426.695 81.2692 426.359 80.8881 426.124 80.4274C426.879 80.63 427.665 80.63 428.42 80.4274C429.19 80.3382 429.928 80.0296 430.568 79.5295L430.383 79.2729ZM431.42 82.6508C431.412 83.2111 431.271 83.7581 431.013 84.2328C430.871 84.4744 430.676 84.6687 430.449 84.7962C430.221 84.9238 429.969 84.9802 429.717 84.9597C429.292 84.9882 428.868 84.8841 428.49 84.6584C428.112 84.4327 427.794 84.0937 427.568 83.677C428.224 83.8763 428.913 83.8763 429.568 83.677C429.923 83.648 430.269 83.5387 430.587 83.3552C430.904 83.1718 431.188 82.9179 431.42 82.608V82.6508ZM432.272 86.1142C432.261 86.5816 432.146 87.038 431.939 87.4397C431.844 87.6286 431.71 87.7867 431.548 87.8989C431.386 88.0111 431.202 88.0738 431.013 88.081C430.639 88.0874 430.27 87.9849 429.94 87.7832C429.61 87.5814 429.329 87.2868 429.124 86.9266C429.668 87.074 430.234 87.0775 430.779 86.9368C431.324 86.7961 431.834 86.5149 432.272 86.1142ZM445.939 54.3024C445.939 56.1837 444.939 57.0816 442.902 57.0816C441.968 57.0065 441.076 56.6037 440.346 55.9272C438.968 60.0149 438.277 64.3682 438.309 68.7545C438.21 77.7059 440.097 86.5376 443.791 94.4092L443.494 94.7512C438.791 88.8934 436.42 80.1708 436.309 68.5835C436.309 67.3435 436.309 65.7615 436.531 63.7518C436.647 61.859 436.92 59.9833 437.346 58.1506C437.762 56.4191 438.412 54.7741 439.272 53.2762C439.608 52.6396 440.082 52.1153 440.647 51.7553C441.212 51.3953 441.849 51.2121 442.494 51.2238C444.717 51.2238 445.828 52.2072 445.828 54.2169L445.939 54.3024ZM479.161 78.375C479.195 81.7911 478.229 85.1205 476.42 87.8245H476.013C476.715 85.3706 477.053 82.7974 477.013 80.2136C477.043 78.3423 476.754 76.4826 476.161 74.7406C475.415 75.4134 474.513 75.8153 473.568 75.8951C472.718 75.9807 471.871 75.6903 471.198 75.0826C470.941 74.8394 470.734 74.5326 470.593 74.1848C470.452 73.837 470.38 73.4571 470.383 73.073C470.383 70.9779 471.494 69.909 473.717 69.909C474.506 69.8611 475.293 70.0436 476.005 70.4397C476.717 70.8358 477.331 71.4326 477.791 72.1751C478.796 74.0262 479.275 76.194 479.161 78.375ZM479.198 4.48957C477.217 5.35885 475.13 5.86383 473.013 5.98609C468.86 5.56873 464.768 4.56351 460.828 2.99304C456.51 1.29653 452.011 0.289521 447.457 0C425.038 0 413.173 15.0222 411.865 45.0667C412.247 45.0251 412.631 45.0251 413.013 45.0667L414.309 45.4088C415.161 31.2559 418.235 20.7803 423.494 13.8963C429.685 6.67209 438.1 2.56811 446.902 2.47995V2.99304C444.983 4.94918 443.411 7.31597 442.272 9.96256C441.101 12.6682 440.254 15.5451 439.754 18.5141C439.125 21.803 438.765 25.1528 438.68 28.5194C438.68 32.1538 438.42 36.1303 438.309 40.4489V45.7508C438.687 45.5145 439.103 45.369 439.531 45.3232C439.901 45.321 440.266 45.2338 440.605 45.0667V40.1068C440.605 15.6779 444.865 3.46338 453.383 3.46338C458.754 3.46338 462.457 7.01227 464.494 14.0673C466.095 19.9204 466.931 26.0162 466.976 32.1538H479.198V4.48957ZM435.717 17.1031C435.791 16.4503 435.733 15.7865 435.548 15.1636C435.363 14.5407 435.056 13.9755 434.651 13.512C434.246 13.0485 433.754 12.6993 433.213 12.4915C432.672 12.2838 432.096 12.2231 431.531 12.3142C430.898 12.2554 430.262 12.3857 429.685 12.6927C429.107 12.9997 428.608 13.4731 428.235 14.0673C427.475 15.1725 427.069 16.5472 427.087 17.9583C427.087 20.481 428.05 21.7637 429.939 21.7637C430.321 21.7987 430.704 21.7435 431.067 21.6013C431.43 21.4591 431.763 21.233 432.048 20.9368C432.332 20.6406 432.561 20.2806 432.72 19.8787C432.88 19.4768 432.967 19.0416 432.976 18.5996L432.383 18.3003C431.643 19.6258 430.865 20.2672 430.087 20.2672C429.309 20.2672 428.531 19.4975 428.531 17.9583C428.484 17.4722 428.527 16.9801 428.656 16.5144C428.786 16.0488 429 15.62 429.283 15.2565C429.566 14.893 429.913 14.6028 430.301 14.4052C430.688 14.2076 431.108 14.107 431.531 14.1101C433.235 14.1101 434.124 15.179 434.124 17.2741C434.124 20.9513 432.346 22.9609 428.791 23.4313C428.705 24.0694 428.51 24.6816 428.218 25.2321C427.925 25.7826 427.541 26.2605 427.087 26.6381C426.274 27.5723 425.195 28.1344 424.05 28.2201V28.7332C423.921 29.9804 423.582 31.1863 423.05 32.2821C422.441 33.6016 422.099 35.0636 422.05 36.5579C422.05 39.8502 423.383 41.5178 426.087 41.5178C426.817 41.5412 427.54 41.3494 428.188 40.9603C428.837 40.5713 429.388 39.9979 429.791 39.2944C430.657 37.9763 431.137 36.3737 431.161 34.7193C431.161 32.5387 430.346 31.427 428.717 31.427C427.087 31.427 426.568 32.2821 426.013 34.0779L426.42 34.3773C427.198 33.18 427.865 32.5814 428.457 32.5814C429.05 32.5814 430.013 33.2228 430.013 34.5483C429.976 35.8169 429.601 37.0415 428.939 38.0544C428.626 38.6193 428.193 39.0815 427.68 39.3961C427.168 39.7108 426.593 39.8672 426.013 39.8502C424.272 39.8502 423.42 38.653 423.42 36.2158C423.457 34.8678 423.802 33.555 424.42 32.4104C424.649 31.8349 425.014 31.3454 425.472 30.9976C425.931 30.6499 426.464 30.4579 427.013 30.4435C427.38 29.2214 428.08 28.1694 429.008 27.4448C429.936 26.7203 431.042 26.3622 432.161 26.4243C432.671 24.8734 433.396 23.4292 434.309 22.1485C435.254 20.6957 435.749 18.9193 435.717 17.1031ZM469.272 29.0325C469.226 21.6462 467.812 14.3568 465.124 7.65364C467.802 8.44248 470.547 8.88701 473.309 8.97913C473.79 9.0217 474.273 9.0217 474.754 8.97913H476.457V28.9898L469.272 29.0325Z" fill="#CE8D27"/>
</g>
<defs>
<filter id="filter0_d" x="0" y="0" width="593.203" height="115" filterUnits="userSpaceOnUse" color-interpolation-filters="sRGB">
<feFlood flood-opacity="0" result="BackgroundImageFix"/>
<feColorMatrix in="SourceAlpha" type="matrix" values="0 0 0 0 0 0 0 0 0 0 0 0 0 0 0 0 0 0 127 0"/>
<feOffset dy="4"/>
<feGaussianBlur stdDeviation="2"/>
<feColorMatrix type="matrix" values="0 0 0 0 0 0 0 0 0 0 0 0 0 0 0 0 0 0 0.8 0"/>
<feBlend mode="normal" in2="BackgroundImageFix" result="effect1_dropShadow"/>
<feBlend mode="normal" in="SourceGraphic" in2="effect1_dropShadow" result="shape"/>
</filter>
</defs>
</svg>
